<mxfile host="app.diagrams.net" modified="2023-12-01T09:06:25.631Z" agent="Mozilla/5.0 (Windows NT 10.0; Win64; x64) AppleWebKit/537.36 (KHTML, like Gecko) Chrome/119.0.0.0 Safari/537.36 Edg/119.0.0.0" etag="qq0rfpm7hHLBkzMNk2mq" version="22.1.5" type="device">
  <diagram name="Side-1" id="8uSLxqYtJGwNJn5mJIMu">
    <mxGraphModel dx="2015" dy="661" grid="1" gridSize="10" guides="1" tooltips="1" connect="1" arrows="1" fold="1" page="1" pageScale="1" pageWidth="827" pageHeight="1169" math="0" shadow="0">
      <root>
        <mxCell id="0" />
        <mxCell id="1" parent="0" />
        <mxCell id="_zQC5bYb4mfakkWWk6qJ-3" style="edgeStyle=orthogonalEdgeStyle;rounded=1;orthogonalLoop=1;jettySize=auto;html=1;exitX=0.5;exitY=1;exitDx=0;exitDy=0;dashed=1;" parent="1" source="4Cdd__MP1ncVrc0N2WNh-1" edge="1">
          <mxGeometry relative="1" as="geometry">
            <mxPoint x="-80" y="160" as="targetPoint" />
            <Array as="points">
              <mxPoint x="-380" y="100" />
              <mxPoint x="-80" y="100" />
            </Array>
          </mxGeometry>
        </mxCell>
        <mxCell id="4Cdd__MP1ncVrc0N2WNh-1" value="&lt;font style=&quot;font-size: 14px;&quot;&gt;24-hour period&lt;/font&gt;" style="rounded=0;whiteSpace=wrap;html=1;fontStyle=1;fontFamily=Times New Roman;" parent="1" vertex="1">
          <mxGeometry x="-450" y="50" width="140" height="30" as="geometry" />
        </mxCell>
        <mxCell id="_zQC5bYb4mfakkWWk6qJ-5" style="edgeStyle=orthogonalEdgeStyle;rounded=0;orthogonalLoop=1;jettySize=auto;html=1;exitX=0.5;exitY=1;exitDx=0;exitDy=0;" parent="1" source="4Cdd__MP1ncVrc0N2WNh-2" edge="1">
          <mxGeometry relative="1" as="geometry">
            <mxPoint x="-380.2380952380954" y="160" as="targetPoint" />
          </mxGeometry>
        </mxCell>
        <mxCell id="4Cdd__MP1ncVrc0N2WNh-2" value="&lt;font style=&quot;font-size: 14px;&quot;&gt;Time In Bed&lt;/font&gt;" style="rounded=0;whiteSpace=wrap;html=1;fontStyle=1;fontFamily=Times New Roman;" parent="1" vertex="1">
          <mxGeometry x="-450" y="116" width="140" height="30" as="geometry" />
        </mxCell>
        <mxCell id="4Cdd__MP1ncVrc0N2WNh-19" value="" style="edgeStyle=orthogonalEdgeStyle;rounded=0;orthogonalLoop=1;jettySize=auto;html=1;" parent="1" source="4Cdd__MP1ncVrc0N2WNh-3" target="4Cdd__MP1ncVrc0N2WNh-12" edge="1">
          <mxGeometry relative="1" as="geometry" />
        </mxCell>
        <mxCell id="4Cdd__MP1ncVrc0N2WNh-3" value="&lt;font style=&quot;font-size: 14px;&quot;&gt;Sleep parameters&lt;/font&gt;" style="rounded=0;whiteSpace=wrap;html=1;fontStyle=1;fontFamily=Times New Roman;" parent="1" vertex="1">
          <mxGeometry x="-591.5" y="223" width="140" height="30" as="geometry" />
        </mxCell>
        <mxCell id="4Cdd__MP1ncVrc0N2WNh-18" value="" style="edgeStyle=orthogonalEdgeStyle;rounded=0;orthogonalLoop=1;jettySize=auto;html=1;" parent="1" source="4Cdd__MP1ncVrc0N2WNh-4" target="4Cdd__MP1ncVrc0N2WNh-14" edge="1">
          <mxGeometry relative="1" as="geometry" />
        </mxCell>
        <mxCell id="4Cdd__MP1ncVrc0N2WNh-4" value="&lt;font style=&quot;font-size: 14px;&quot;&gt;Blood glucose parameters&lt;/font&gt;" style="rounded=0;whiteSpace=wrap;html=1;fontStyle=1;fontFamily=Times New Roman;" parent="1" vertex="1">
          <mxGeometry x="-328.5" y="223" width="190" height="30" as="geometry" />
        </mxCell>
        <mxCell id="4Cdd__MP1ncVrc0N2WNh-10" value="" style="endArrow=none;html=1;rounded=0;" parent="1" edge="1">
          <mxGeometry width="50" height="50" relative="1" as="geometry">
            <mxPoint x="-680" y="180" as="sourcePoint" />
            <mxPoint x="-80" y="180" as="targetPoint" />
            <Array as="points" />
          </mxGeometry>
        </mxCell>
        <mxCell id="4Cdd__MP1ncVrc0N2WNh-11" value="" style="shape=link;html=1;rounded=0;strokeWidth=3;strokeColor=#000000;" parent="1" edge="1">
          <mxGeometry width="100" relative="1" as="geometry">
            <mxPoint x="-520" y="180" as="sourcePoint" />
            <mxPoint x="-240" y="180" as="targetPoint" />
          </mxGeometry>
        </mxCell>
        <mxCell id="4Cdd__MP1ncVrc0N2WNh-12" value="&lt;font face=&quot;Times New Roman&quot;&gt;&lt;font style=&quot;font-size: 14px;&quot;&gt;Number of awakenings (NA)&lt;br&gt;Wake after sleep onset (WASO)&lt;br&gt;Total sleep time (TST)&lt;br&gt;Sleep onset latency (SOL)&amp;nbsp;&lt;br&gt;Sleep Efficiency&amp;nbsp;&lt;br&gt;Sleep quality&lt;/font&gt;&lt;br&gt;&lt;/font&gt;" style="rounded=0;whiteSpace=wrap;html=1;" parent="1" vertex="1">
          <mxGeometry x="-627.25" y="290" width="211.5" height="150" as="geometry" />
        </mxCell>
        <mxCell id="4Cdd__MP1ncVrc0N2WNh-14" value="&lt;font style=&quot;font-size: 14px;&quot; face=&quot;Times New Roman&quot;&gt;Time In Range (TIR)&lt;br&gt;Time Above Range (TAR)&lt;br&gt;Time Below Range (TBR)&lt;br&gt;Mean blood glucose&lt;br&gt;Min blood glucose&lt;br&gt;Max blood glucose&lt;br&gt;Coefficent of variation (CV)&lt;/font&gt;&lt;font face=&quot;Times New Roman&quot;&gt;&lt;br&gt;&lt;/font&gt;" style="rounded=0;whiteSpace=wrap;html=1;" parent="1" vertex="1">
          <mxGeometry x="-334.25" y="290" width="201.5" height="150" as="geometry" />
        </mxCell>
        <mxCell id="4Cdd__MP1ncVrc0N2WNh-21" value="" style="endArrow=none;dashed=1;html=1;rounded=1;" parent="1" edge="1">
          <mxGeometry width="50" height="50" relative="1" as="geometry">
            <mxPoint x="-520" y="168" as="sourcePoint" />
            <mxPoint x="-240" y="168" as="targetPoint" />
            <Array as="points">
              <mxPoint x="-520" y="158" />
              <mxPoint x="-240" y="158" />
            </Array>
          </mxGeometry>
        </mxCell>
        <mxCell id="4Cdd__MP1ncVrc0N2WNh-29" value="" style="endArrow=classic;html=1;rounded=1;" parent="1" edge="1">
          <mxGeometry width="50" height="50" relative="1" as="geometry">
            <mxPoint x="-392.5" y="203" as="sourcePoint" />
            <mxPoint x="-232.5" y="223" as="targetPoint" />
            <Array as="points">
              <mxPoint x="-232.5" y="203" />
            </Array>
          </mxGeometry>
        </mxCell>
        <mxCell id="4Cdd__MP1ncVrc0N2WNh-30" value="" style="endArrow=classic;html=1;rounded=1;" parent="1" edge="1">
          <mxGeometry width="50" height="50" relative="1" as="geometry">
            <mxPoint x="-378.5" y="203" as="sourcePoint" />
            <mxPoint x="-518.5" y="223" as="targetPoint" />
            <Array as="points">
              <mxPoint x="-518.5" y="203" />
            </Array>
          </mxGeometry>
        </mxCell>
        <mxCell id="4Cdd__MP1ncVrc0N2WNh-33" value="" style="line;strokeWidth=1;direction=south;html=1;" parent="1" vertex="1">
          <mxGeometry x="-385" y="183" width="10" height="20" as="geometry" />
        </mxCell>
        <mxCell id="c-2nI-7i6T0Ake9NYIhw-1" style="edgeStyle=orthogonalEdgeStyle;rounded=1;orthogonalLoop=1;jettySize=auto;html=1;exitX=0.5;exitY=1;exitDx=0;exitDy=0;dashed=1;" edge="1" parent="1" source="4Cdd__MP1ncVrc0N2WNh-1">
          <mxGeometry relative="1" as="geometry">
            <mxPoint x="-680" y="160" as="targetPoint" />
            <Array as="points">
              <mxPoint x="-380" y="100" />
              <mxPoint x="-680" y="100" />
              <mxPoint x="-680" y="160" />
            </Array>
            <mxPoint x="-675.02" y="100" as="sourcePoint" />
          </mxGeometry>
        </mxCell>
      </root>
    </mxGraphModel>
  </diagram>
</mxfile>
